<?xml version="1.0" encoding="UTF-8"?>
<svg width="300px" height="300px" viewBox="0 0 300 300" version="1.1" xmlns="http://www.w3.org/2000/svg" xmlns:xlink="http://www.w3.org/1999/xlink">
    <title>bon-jisho</title>
    <g id="bon-jisho" stroke="none" stroke-width="1" fill="none" fill-rule="evenodd">
        <polygon id="Path" fill="#4A90E2" points="230.702 -0.000812973493 300 69.296187 300 300 0 300 0 0"></polygon>
        <path d="M146.497039,55.6240789 C148.672456,55.6240789 150.046404,53.7921491 150.046404,52.4182018 C150.046404,51.15875 149.702917,50.2427851 149.35943,49.5558114 C147.298509,45.8919518 142.947675,39.9381798 139.970789,37.0757895 C138.940329,36.1598246 138.13886,35.7018421 136.879408,35.7018421 C135.276469,35.7018421 133.559035,37.1902851 133.559035,38.6787281 C133.559035,40.0526754 134.017018,40.6251535 134.932982,41.655614 C137.909868,44.9759868 141.00125,49.4413158 143.520154,53.7921491 C144.321623,55.0516009 145.123092,55.6240789 146.497039,55.6240789 Z M131.269123,58.7154605 C133.330044,58.7154605 134.932982,57.2270175 134.932982,55.3950877 C134.932982,54.2501316 134.589496,53.4486623 134.246009,52.7616886 C132.070592,48.9833333 127.94875,44.0600219 124.399386,40.5106579 C123.483421,39.594693 122.681952,39.2512061 121.4225,39.2512061 C119.59057,39.2512061 118.102127,40.8541447 118.102127,42.3425877 C118.102127,43.3730482 118.56011,44.2890132 119.247083,45.0904825 C122.452961,48.6398465 125.887829,52.9906798 128.292237,56.8835307 C129.093706,58.2574781 129.895175,58.7154605 131.269123,58.7154605 Z M91.9971272,142.755241 C94.7450219,142.755241 97.1494298,141.381294 97.1494298,138.404408 L97.1494298,70.5085088 L137.566382,70.5085088 C139.970789,70.5085088 141.573728,68.5620833 141.573728,65.9286842 C141.573728,63.4097807 139.970789,61.234364 137.566382,61.234364 L97.1494298,61.234364 L97.1494298,47.8383772 C97.1494298,44.8614912 94.7450219,43.4875439 91.9971272,43.4875439 C89.2492325,43.4875439 87.302807,44.8614912 87.302807,47.8383772 L87.302807,61.234364 L48.9467763,61.234364 C46.5423684,61.234364 44.9394298,63.4097807 44.9394298,65.9286842 C44.9394298,68.5620833 46.5423684,70.5085088 48.9467763,70.5085088 L87.302807,70.5085088 L87.302807,138.404408 C87.302807,141.381294 89.2492325,142.755241 91.9971272,142.755241 Z M48.4887939,132.450636 C50.0917325,132.450636 51.8091667,131.649167 52.9541228,129.931732 C60.6253289,119.054649 66.8080921,103.826732 70.0139693,88.2553289 C70.0139693,87.7973465 70.1284649,87.4538596 70.1284649,86.9958772 C70.1284649,84.4769737 68.5255263,82.7595395 66.3501096,82.4160526 C65.7776316,82.301557 65.2051535,82.1870614 64.7471711,82.1870614 C62.5717544,82.1870614 60.7398246,83.4465132 60.2818421,86.0799123 C57.648443,99.9338816 51.8091667,114.474825 44.3669518,124.550439 C43.6799781,125.466404 43.3364912,126.61136 43.3364912,127.64182 C43.3364912,129.244759 44.1379605,130.733202 45.7408991,131.649167 C46.5423684,132.221645 47.4583333,132.450636 48.4887939,132.450636 Z M137.222895,132.565132 C138.253355,132.565132 139.283816,132.221645 140.314276,131.649167 C141.573728,130.847697 142.375197,129.244759 142.375197,127.527325 C142.375197,126.496864 142.031711,125.351908 141.459232,124.435943 C133.215548,114.245833 127.376272,100.162873 124.628377,86.1944079 C124.055899,83.4465132 122.109474,82.301557 119.934057,82.301557 C119.476075,82.301557 119.018092,82.301557 118.56011,82.4160526 C116.384693,82.7595395 114.781754,84.4769737 114.781754,86.8813816 C114.781754,87.339364 114.89625,87.7973465 115.010746,88.2553289 C118.102127,103.712237 125.08636,119.627127 132.872061,130.046228 C134.131513,131.763662 135.619956,132.565132 137.222895,132.565132 Z M196.417127,83.79 C197.791075,83.79 199.050526,83.2175219 199.966491,82.1870614 C200.996952,81.0421053 201.56943,79.6681579 201.56943,78.2942105 C201.56943,77.0347588 201.111447,75.775307 200.195482,74.6303509 C193.554737,66.5011623 183.135636,58.3719737 174.777456,53.1051754 C173.746996,52.4182018 172.602039,51.9602193 171.342588,51.9602193 C169.96864,51.9602193 168.709189,52.4182018 167.678728,53.6776535 C166.877259,54.5936184 166.419276,55.8530702 166.419276,56.9980263 C166.419276,58.3719737 166.991754,59.7459211 168.251206,60.661886 C176.49489,66.2721711 185.883531,74.4013596 192.180789,81.6145833 C193.554737,83.1030263 195.04318,83.79 196.417127,83.79 Z M170.884605,136.114496 C188.631425,135.427522 209.813114,128.672281 223.667083,118.25318 C239.581974,106.23114 250.459057,87.6828509 255.153377,68.2185965 C255.267873,67.5316228 255.382368,66.8446491 255.382368,66.1576754 C255.382368,63.7532675 253.893925,62.1503289 251.489518,61.4633553 C250.917039,61.3488596 250.344561,61.234364 249.772083,61.234364 C247.711162,61.234364 245.993728,62.4938158 245.192259,65.5851974 C241.070417,82.5305482 231.109298,99.2469079 217.713311,109.666009 C206.26375,118.482171 186.799496,125.122917 169.854145,125.924386 C166.991754,126.038882 165.27432,128.214298 165.27432,130.962193 L165.27432,131.534671 L165.27432,131.534671 C165.503311,134.397061 167.678728,136.114496 170.655614,136.114496 L170.884605,136.114496 L170.884605,136.114496 Z M140.886754,174.745921 C142.947675,174.745921 144.092632,173.142982 144.092632,170.85307 C144.092632,168.448662 142.947675,166.960219 140.886754,166.960219 L119.476075,166.960219 L119.476075,157.457083 C119.476075,155.510658 117.75864,154.365702 115.239737,154.365702 C112.606338,154.365702 110.888904,155.510658 110.888904,157.457083 L110.888904,166.960219 L91.3101535,166.960219 C89.2492325,166.960219 88.1042763,168.448662 88.1042763,170.85307 C88.1042763,173.142982 89.2492325,174.745921 91.3101535,174.745921 L140.886754,174.745921 Z M75.3952632,256.037807 C81.6925219,256.037807 84.7839035,253.518904 84.7839035,247.221645 L84.7839035,220.773158 C84.7839035,214.590395 81.6925219,212.071491 75.3952632,212.071491 L69.6704825,212.071491 L69.6704825,194.897149 L86.6158333,194.897149 C88.6767544,194.897149 89.8217105,193.294211 89.8217105,191.004298 C89.8217105,188.59989 88.6767544,186.996952 86.6158333,186.996952 L69.6704825,186.996952 L69.6704825,168.677654 C74.3648026,167.418202 78.8301316,166.044254 82.4939912,164.670307 C84.5549123,163.983333 85.5853728,162.609386 85.5853728,160.891952 C85.5853728,160.204978 85.4708772,159.518004 85.1273904,158.716535 C84.4404167,157.113596 83.1809649,156.197632 81.5780263,156.197632 C80.8910526,156.197632 79.9750877,156.426623 79.1736184,156.77011 C70.3574561,160.548465 57.648443,163.639846 46.3133772,164.899298 C44.0234649,165.128289 42.7640132,166.273246 42.7640132,168.334167 L42.7640132,169.135636 L42.7640132,169.135636 C43.1075,171.540044 44.4814474,172.913991 47.0003509,172.913991 L47.8018202,172.913991 L47.8018202,172.913991 C52.1526535,172.341513 56.7324781,171.540044 61.4267982,170.624079 L61.4267982,186.996952 L43.4509868,186.996952 C41.3900658,186.996952 40.2451096,188.59989 40.2451096,191.004298 C40.2451096,193.294211 41.3900658,194.897149 43.4509868,194.897149 L61.4267982,194.897149 L61.4267982,212.071491 L54.5570614,212.071491 C48.3742982,212.071491 45.1684211,214.590395 45.1684211,220.773158 L45.1684211,247.221645 C45.1684211,253.518904 48.3742982,256.037807 54.5570614,256.037807 L75.3952632,256.037807 Z M104.133662,197.072566 C104.591645,197.072566 104.935132,197.072566 105.393114,196.95807 C107.339539,196.500088 108.598991,195.240636 108.598991,193.294211 C108.598991,192.836228 108.598991,192.378246 108.37,191.805768 C107.225044,187.454934 105.622105,182.760614 103.904671,179.096754 C103.103202,177.493816 101.84375,176.692346 100.355307,176.692346 C99.8973246,176.692346 99.3248465,176.806842 98.7523684,176.921338 C97.1494298,177.37932 96.1189693,178.524276 96.1189693,180.012719 C96.1189693,180.585197 96.2334649,181.157675 96.5769518,181.730154 C98.0653947,185.165022 99.6683333,189.859342 100.584298,193.981184 C101.042281,196.042105 102.416228,197.072566 104.133662,197.072566 Z M115.239737,260.503136 C117.644145,260.503136 119.476075,259.243684 119.476075,257.068268 L119.476075,230.734276 L140.657763,230.734276 C142.83318,230.734276 143.86364,229.131338 143.86364,226.72693 C143.86364,224.208026 142.83318,222.719583 140.657763,222.719583 L119.476075,222.719583 L119.476075,207.033684 L143.405658,207.033684 C145.352083,207.033684 146.382544,205.430746 146.382544,203.140833 C146.382544,200.850921 145.352083,199.247982 143.405658,199.247982 L127.719759,199.247982 C130.696645,193.523202 133.215548,187.683925 134.818487,182.302632 C134.932982,181.844649 135.047478,181.386667 135.047478,180.928684 C135.047478,178.982259 133.673531,177.608311 131.727105,177.264825 C131.269123,177.150329 130.81114,177.035833 130.353158,177.035833 C128.750219,177.035833 127.490768,177.951798 126.918289,180.012719 C125.429846,185.851996 122.681952,192.721732 119.361579,199.247982 L89.0202412,199.247982 C87.0738158,199.247982 85.9288596,200.850921 85.9288596,203.140833 C85.9288596,205.430746 87.0738158,207.033684 89.0202412,207.033684 L110.888904,207.033684 L110.888904,222.719583 L91.5391447,222.719583 C89.3637281,222.719583 88.3332675,224.208026 88.3332675,226.72693 C88.3332675,229.131338 89.3637281,230.734276 91.5391447,230.734276 L110.888904,230.734276 L110.888904,257.068268 C110.888904,259.243684 112.720833,260.503136 115.239737,260.503136 Z M72.9908553,247.794123 L57.0759649,247.794123 C54.9005482,247.794123 53.7555921,247.107149 53.7555921,244.931732 L53.7555921,222.719583 C53.7555921,220.544167 54.9005482,219.857193 57.0759649,219.857193 L72.9908553,219.857193 C75.1662719,219.857193 76.3112281,220.544167 76.3112281,222.719583 L76.3112281,244.931732 C76.3112281,247.107149 75.1662719,247.794123 72.9908553,247.794123 Z M257.214298,218.826732 C258.931732,218.826732 260.076689,217.338289 260.076689,215.277368 C260.076689,213.330943 258.817237,211.956996 257.099803,211.956996 L210.95807,211.956996 L210.95807,205.888728 L248.627127,205.888728 C250.344561,205.888728 251.375022,204.285789 251.375022,202.45386 C251.375022,200.62193 250.230066,199.247982 248.627127,199.247982 L210.95807,199.247982 L210.95807,193.294211 L238.895,193.294211 C245.650241,193.294211 248.28364,190.775307 248.28364,184.936031 L248.28364,180.127215 L258.015768,180.127215 C259.733202,180.127215 260.878158,178.753268 260.878158,176.692346 C260.878158,174.860417 259.733202,173.257478 258.015768,173.257478 L248.28364,173.257478 L248.28364,168.448662 C248.28364,162.609386 245.650241,160.090482 238.895,160.090482 L210.95807,160.090482 L210.95807,156.77011 C210.95807,154.480197 209.698618,153.564232 207.065219,153.564232 C204.317325,153.564232 203.172368,154.480197 203.172368,156.77011 L203.172368,160.090482 L169.396162,160.090482 C167.678728,160.090482 166.648268,161.693421 166.648268,163.525351 C166.648268,165.471776 167.678728,166.731228 169.396162,166.731228 L203.172368,166.731228 L203.172368,173.257478 L158.175592,173.257478 C156.458158,173.257478 155.313202,174.745921 155.313202,176.692346 C155.313202,178.753268 156.458158,180.127215 158.175592,180.127215 L203.172368,180.127215 L203.172368,186.653465 L169.396162,186.653465 C167.678728,186.653465 166.648268,188.256404 166.648268,190.088333 C166.648268,191.920263 167.678728,193.294211 169.396162,193.294211 L203.172368,193.294211 L203.172368,199.247982 L166.533772,199.247982 C164.930833,199.247982 163.900373,200.736425 163.900373,202.45386 C163.900373,204.285789 164.930833,205.888728 166.648268,205.888728 L203.172368,205.888728 L203.172368,211.956996 L158.175592,211.956996 C156.343662,211.956996 155.427697,213.445439 155.427697,215.391864 C155.427697,217.452785 156.458158,218.826732 158.290088,218.826732 L257.214298,218.826732 Z M240.497939,173.257478 L210.95807,173.257478 L210.95807,166.731228 L237.406557,166.731228 C239.581974,166.731228 240.497939,167.303706 240.497939,169.364627 L240.497939,173.257478 Z M237.406557,186.653465 L210.95807,186.653465 L210.95807,180.127215 L240.497939,180.127215 L240.497939,183.90557 C240.497939,185.966491 239.581974,186.653465 237.406557,186.653465 Z M237.177566,258.442215 C244.047303,258.442215 246.909693,256.037807 246.909693,250.084035 L246.909693,232.795197 C246.909693,226.955921 244.047303,224.551513 237.177566,224.551513 L177.983333,224.551513 C171.113596,224.551513 168.365702,226.955921 168.365702,232.795197 L168.365702,250.084035 C168.365702,256.037807 171.113596,258.442215 177.983333,258.442215 L237.177566,258.442215 Z M238.895,238.061996 L176.380395,238.061996 L176.380395,233.825658 C176.380395,231.764737 177.410855,231.192259 179.586272,231.192259 L235.689123,231.192259 C237.750044,231.192259 238.895,231.764737 238.895,233.825658 L238.895,238.061996 Z M235.689123,251.801469 L179.586272,251.801469 C177.410855,251.801469 176.380395,251.228991 176.380395,249.16807 L176.380395,244.47375 L238.895,244.47375 L238.895,249.16807 C238.895,251.228991 237.750044,251.801469 235.689123,251.801469 Z" id="ボン辞書" fill="#FFFFFF" fill-rule="nonzero"></path>
    </g>
</svg>
